<?xml version="1.0" encoding="utf-8"?>
<!-- Generator: Adobe Illustrator 17.0.0, SVG Export Plug-In . SVG Version: 6.00 Build 0)  -->
<!DOCTYPE svg PUBLIC "-//W3C//DTD SVG 1.1//EN" "http://www.w3.org/Graphics/SVG/1.1/DTD/svg11.dtd">
<svg version="1.1" id="Capa_1" xmlns="http://www.w3.org/2000/svg" xmlns:xlink="http://www.w3.org/1999/xlink" x="0px" y="0px"
	 width="148px" height="148px" viewBox="19.877 11.926 148 148" enable-background="new 19.877 11.926 148 148"
	 xml:space="preserve">
<g>
	<circle fill="#FFFFFF" cx="93.948" cy="86.062" r="73.926"/>
</g>
<path fill="#264065" d="M71.092,111.72V60.405c0-2.216,2.447-3.552,4.31-2.361l40.111,25.658c1.726,1.105,1.726,3.617,0,4.721
	l-40.111,25.658C73.539,115.272,71.092,113.936,71.092,111.72z"/>
<path fill="#264065" d="M72.174,111.72c0-1.011,0-2.029,0-3.039c0-2.578,0-5.155,0-7.732c0-3.501,0-7.003,0-10.497
	c0-3.754,0-7.508,0-11.269c0-3.35,0-6.7,0-10.056c0-2.289,0-4.57,0-6.858c0-0.534,0-1.076,0-1.61c0-0.079,0-0.166,0-0.245
	c0-0.036,0-0.051,0-0.101c0-0.065,0.007-0.123,0.014-0.188c-0.014,0.231-0.007,0.036,0.007-0.029c0.036-0.13,0.072-0.26,0.108-0.383
	c-0.072,0.217-0.022,0.036,0.014-0.022c0.051-0.087,0.094-0.173,0.152-0.26c0.029-0.051,0.065-0.094,0.094-0.137
	c-0.13,0.181-0.043,0.058-0.007,0.022c0.101-0.101,0.195-0.195,0.303-0.289c-0.173,0.152-0.043,0.029,0.014-0.007
	c0.058-0.036,0.116-0.072,0.181-0.108c0.051-0.029,0.101-0.051,0.152-0.079c0.209-0.116-0.159,0.043,0.05-0.022
	c0.137-0.036,0.267-0.079,0.404-0.108c0.245-0.065-0.144-0.022,0.007,0c0.065,0.007,0.144-0.007,0.209-0.007
	c0.058,0,0.116,0,0.173,0.007c0.014,0,0.282,0.051,0.116,0.007c-0.173-0.043,0.108,0.029,0.116,0.029
	c0.087,0.022,0.173,0.051,0.253,0.079c0.188,0.058,0.036,0.014-0.007-0.007c0.087,0.043,0.166,0.087,0.246,0.13
	c0.029,0.014,0.058,0.036,0.079,0.051c0.007,0.007,0.014,0.007,0.022,0.014c0.101,0.065,0.209,0.13,0.31,0.195
	c0.542,0.347,1.076,0.686,1.617,1.033c2.101,1.343,4.209,2.693,6.31,4.035c2.96,1.899,5.927,3.79,8.887,5.689
	c3.14,2.007,6.281,4.021,9.428,6.028c2.707,1.733,5.407,3.458,8.115,5.191c1.61,1.032,3.22,2.065,4.837,3.09
	c0.159,0.101,0.31,0.202,0.469,0.296c0.036,0.022,0.072,0.043,0.108,0.065c0.007,0,0.014,0.007,0.014,0.007
	c0.051,0.036,0.108,0.072,0.159,0.108c-0.166-0.13-0.007,0,0.029,0.036c0.072,0.079,0.144,0.152,0.217,0.224
	c0.043,0.043,0.087,0.159-0.007-0.007c0.029,0.051,0.065,0.094,0.094,0.144c0.043,0.072,0.079,0.152,0.123,0.231
	c0.029,0.058,0.051,0.18-0.007-0.022c0.043,0.137,0.087,0.267,0.123,0.412c0.014,0.058,0.022,0.108,0.029,0.166
	c-0.043-0.274-0.007-0.014-0.007,0.051c0,0.079-0.036,0.505,0.007,0.217c-0.022,0.137-0.05,0.282-0.094,0.412
	c-0.014,0.058-0.036,0.108-0.058,0.159c0.072-0.224,0.022-0.043-0.014,0.014c-0.036,0.065-0.065,0.13-0.108,0.188
	c-0.022,0.029-0.188,0.26-0.036,0.065c-0.094,0.116-0.202,0.217-0.31,0.325c-0.029,0.029-0.159,0.13,0,0.007
	c-0.058,0.043-0.094,0.065-0.159,0.108c-0.007,0-0.007,0.007-0.014,0.007c-0.029,0.022-0.065,0.043-0.094,0.058
	c-1.227,0.787-2.455,1.567-3.682,2.354c-2.476,1.581-4.952,3.169-7.429,4.75c-3.112,1.985-6.216,3.978-9.328,5.963
	c-3.054,1.957-6.115,3.913-9.168,5.869c-2.39,1.53-4.779,3.061-7.169,4.584c-1.068,0.686-2.13,1.379-3.205,2.05
	c-0.116,0.072-0.231,0.137-0.354,0.202c0.181-0.094,0.051-0.022,0.007-0.007c-0.072,0.022-0.144,0.043-0.217,0.065
	c-0.072,0.022-0.144,0.029-0.217,0.051c0.195-0.058,0.108-0.007,0.029-0.007c-0.144,0.007-0.282,0.007-0.426,0
	c-0.202-0.007-0.007,0,0.036,0.007c-0.079-0.014-0.166-0.029-0.245-0.051c-0.072-0.014-0.383-0.13-0.267-0.079
	c0.116,0.051-0.188-0.101-0.246-0.137c-0.058-0.036-0.116-0.087-0.173-0.116c-0.137-0.065,0.166,0.166-0.014-0.014
	c-0.101-0.101-0.202-0.195-0.296-0.303c0.152,0.166-0.029-0.051-0.079-0.123c-0.043-0.072-0.079-0.152-0.123-0.224
	c-0.029-0.058-0.043-0.173,0.007,0.022c-0.036-0.144-0.087-0.282-0.123-0.426c-0.014-0.058-0.007-0.195,0,0.014
	C72.182,111.908,72.174,111.814,72.174,111.72c-0.007-0.563-0.491-1.112-1.083-1.083c-0.578,0.029-1.09,0.477-1.083,1.083
	c0.022,1.429,0.801,2.808,2.108,3.451c1.235,0.606,2.664,0.57,3.841-0.159c0.267-0.166,0.534-0.339,0.794-0.513
	c1.754-1.119,3.508-2.245,5.263-3.364c2.823-1.805,5.645-3.609,8.468-5.414c3.198-2.05,6.404-4.093,9.602-6.144
	c2.917-1.863,5.833-3.732,8.75-5.595c1.964-1.256,3.934-2.512,5.898-3.776c0.412-0.26,0.823-0.527,1.235-0.787
	c0.39-0.253,0.758-0.541,1.047-0.91c0.946-1.191,1.119-2.772,0.477-4.151c-0.397-0.845-1.105-1.379-1.856-1.863
	c-0.578-0.368-1.162-0.744-1.74-1.112c-2.202-1.408-4.404-2.815-6.598-4.223c-3.032-1.942-6.071-3.884-9.104-5.826
	c-3.191-2.036-6.375-4.079-9.566-6.115c-2.664-1.704-5.328-3.408-7.992-5.111c-1.458-0.931-2.909-1.863-4.368-2.794
	c-0.989-0.635-2.086-0.96-3.27-0.693c-1.826,0.412-2.989,2.094-2.996,3.913c0,1.408,0,2.808,0,4.216c0,2.888,0,5.775,0,8.663
	c0,3.668,0,7.328,0,10.995c0,3.761,0,7.53,0,11.291c0,3.184,0,6.367,0,9.558c0,1.906,0,3.805,0,5.71c0,0.253,0,0.505,0,0.765
	c0,0.563,0.498,1.112,1.083,1.083C71.676,112.774,72.174,112.326,72.174,111.72z"/>
</svg>
